HIERARCHY
ROOT hip
{
	OFFSET 0.000000 0.000000 0.000000 
	CHANNELS 6 Xposition Yposition Zposition Xrotation Zrotation Yrotation
	JOINT abdomen
	{
		OFFSET 0.000000 3.402643 0.000000 
		CHANNELS 3 Xrotation Zrotation Yrotation
		JOINT chest
		{
			OFFSET 0.000000 8.438565 -0.680529 
			CHANNELS 3 Xrotation Zrotation Yrotation
			JOINT neck
			{
				OFFSET 0.000000 10.207942 -0.272212 
				CHANNELS 3 Xrotation Zrotation Yrotation
				JOINT head
				{
					OFFSET 0.000000 3.130431 0.000000 
					CHANNELS 3 Xrotation Zrotation Yrotation
					End Site
					{
						OFFSET 0.000000 3.130435 0.000000 
					}
				}
			}
			JOINT lCollar
			{
				OFFSET 3.470700 6.669187 -0.816635 
				CHANNELS 3 Yrotation Zrotation Xrotation
				JOINT lShldr
				{
					OFFSET 3.198488 0.000000 0.000000 
					CHANNELS 3 Zrotation Yrotation Xrotation
					JOINT lForeArm
					{
						OFFSET 10.139888 0.000000 0.000000 
						CHANNELS 3 Yrotation Zrotation Xrotation
						JOINT lHand
						{
							OFFSET 8.370511 0.000000 0.000000 
							CHANNELS 3 Zrotation Yrotation Xrotation
							End Site
							{
								OFFSET 4.083176 0.000000 0.000000 
							}
						}
					}
				}
			}
			JOINT rCollar
			{
				OFFSET -3.470700 6.669187 -0.816635 
				CHANNELS 3 Yrotation Zrotation Xrotation
				JOINT rShldr
				{
					OFFSET -3.198488 0.000000 0.000000 
					CHANNELS 3 Zrotation Yrotation Xrotation
					JOINT rForeArm
					{
						OFFSET -10.139888 0.000000 0.000000 
						CHANNELS 3 Yrotation Zrotation Xrotation
						JOINT rHand
						{
							OFFSET -8.370511 0.000000 0.000000 
							CHANNELS 3 Zrotation Yrotation Xrotation
							End Site
							{
								OFFSET -4.083176 0.000000 0.000000 
							}
						}
					}
				}
			}
		}
	}
	JOINT lThigh
	{
		OFFSET 5.308129 -1.633274 1.361059 
		CHANNELS 3 Xrotation Zrotation Yrotation
		JOINT lShin
		{
			OFFSET -2.041588 -20.007561 0.000000 
			CHANNELS 3 Xrotation Zrotation Yrotation
			JOINT lFoot
			{
				OFFSET 0.000000 -19.190928 -1.224953 
				CHANNELS 3 Xrotation Yrotation Zrotation
				End Site
				{
					OFFSET 0.000000 -2.449906 4.627600 
				}
			}
		}
	}
	JOINT rThigh
	{
		OFFSET -5.308129 -1.633274 1.361059 
		CHANNELS 3 Xrotation Zrotation Yrotation
		JOINT rShin
		{
			OFFSET 2.041588 -20.007561 0.000000 
			CHANNELS 3 Xrotation Zrotation Yrotation
			JOINT rFoot
			{
				OFFSET 0.000000 -19.190928 -1.224953 
				CHANNELS 3 Xrotation Yrotation Zrotation
				End Site
				{
					OFFSET 0.000000 -2.449906 4.627600 
				}
			}
		}
	}
}
MOTION
Frames: 13
Frame Time: 0.033333
327.481964 6.827808 5.007418 -11.435548 1.025391 89.785156 0.000000 0.000000 0.000000 -3.710938 4.902344 -7.529296 -0.410156 9.277354 -9.812867 22.695313 -3.242188 -1.016178 13.310547 17.324219 24.997091 -87.285156 -37.402340 54.931641 -7.050781 -8.984375 7.814024 -14.980468 -7.822267 0.447890 -21.689451 2.978516 11.981914 81.533203 16.923828 24.426670 -0.673828 -6.464844 16.533201 -2.509766 3.261719 -1.474054 -4.383701 13.650167 -5.708427 47.788700 -1.127508 -16.481905 -7.278618 0.043622 -4.977840 -0.683287 11.005242 -25.201391 4.310955 2.625700 22.676933 -1.298746 6.028522 -10.111095 
328.221954 6.760572 5.124656 -11.787109 0.859375 89.638817 0.000000 0.000000 0.000000 -3.886719 5.078125 -7.206167 -0.410156 9.404297 -10.156249 22.871094 -3.408203 -1.064453 13.134766 17.001953 25.000000 -86.445313 -37.763676 53.076172 -7.041016 -8.652344 8.017579 -14.814453 -7.763672 0.458984 -21.845703 3.095703 12.118611 81.445313 17.353516 25.676743 -0.673828 -6.669922 16.348791 -2.138672 3.369141 -1.356846 -8.773981 14.202919 -7.871947 52.948647 -0.512390 -20.450897 -1.013067 0.736521 -10.097113 -0.133484 11.293230 -25.253994 5.538051 2.821316 23.091745 -2.811089 6.044945 -10.655763 
329.105835 6.727926 5.225960 -11.962891 0.507813 89.707031 0.000000 0.000000 0.000000 -4.062500 5.078125 -7.041016 -0.761719 9.404297 -10.224607 22.519531 -3.417969 -1.045504 13.164063 16.953125 24.997154 -86.220703 -38.173828 52.249821 -7.216797 -8.330079 8.194774 -15.312499 -7.919922 0.428342 -21.923828 3.320313 12.040449 81.552734 17.675781 25.312498 -0.673828 -6.669922 16.348791 -3.388672 3.017578 -1.513156 -12.956736 14.178110 -11.801460 56.529629 -0.651291 -24.498714 4.038967 1.514750 -17.654671 0.361190 11.717581 -25.332220 5.918039 2.797775 23.113066 -3.957874 6.196807 -10.952961 
329.926392 6.736785 5.304387 -11.953125 0.000000 89.824219 0.000000 0.000000 0.000000 -4.414062 5.078125 -7.245230 -0.937500 9.228516 -10.253905 22.167969 -3.251953 -0.986328 13.261719 16.914064 24.997156 -86.220703 -38.164066 51.898262 -7.207031 -8.027345 8.604879 -15.478515 -7.978516 0.418568 -21.689451 3.300781 12.108813 81.464844 18.095701 26.220705 -0.312500 -6.298828 16.582031 -4.794922 2.626953 -1.621094 -16.478804 14.196482 -14.266768 59.093067 -0.436513 -27.476828 7.354860 1.250900 -22.366011 1.212902 12.094085 -24.842064 4.877676 2.558763 22.863371 -4.432097 5.884114 -11.087235 
330.696228 6.793566 5.357596 -11.611328 -0.693359 90.136719 0.000000 0.000000 0.000000 -4.589844 4.902344 -7.079243 -1.474609 8.896484 -10.174270 21.630861 -3.085938 -0.908729 13.466797 16.445311 24.997234 -86.289063 -38.320313 51.552734 -7.207031 -7.880860 8.800165 -15.527344 -7.988280 0.585937 -21.464844 3.134766 12.548829 81.416016 18.720703 28.525391 0.039063 -6.093750 16.796875 -4.091796 2.822266 -1.571785 -20.544893 13.329405 -15.072888 62.793236 0.237552 -26.564455 8.831325 1.090970 -19.961182 2.306400 12.192487 -24.109272 3.516715 2.616008 22.456833 -5.028932 5.816304 -10.904973 
331.429688 6.898628 5.385798 -11.083984 -1.386719 90.263435 0.000000 0.000000 0.000000 -4.589844 4.550781 -7.050007 -1.650391 8.369142 -10.185547 21.279297 -2.744141 -0.811014 13.486329 15.771484 24.997345 -86.289063 -38.291016 50.673828 -7.031250 -7.705078 8.837892 -15.693358 -8.037109 0.574808 -21.386719 2.753906 12.978517 81.708984 19.755859 29.251350 0.224609 -5.927735 16.826172 -4.257813 2.773438 -1.542969 -24.184519 12.440207 -15.768314 65.917595 0.587827 -21.133848 6.945179 0.828693 -15.370060 4.385785 12.598103 -22.697142 -0.546099 2.454066 21.354830 -3.768282 6.004116 -10.093616 
331.932983 7.041796 5.379687 -10.205078 -1.904297 90.165688 0.000000 0.000000 0.000000 -4.589844 4.199219 -6.669206 -1.835937 7.695312 -10.027989 21.103516 -2.744141 -0.800781 13.583984 15.058035 24.998398 -86.142578 -37.929691 49.974464 -6.855469 -7.734375 9.044283 -14.980468 -7.822267 0.447890 -21.152344 2.109375 14.071907 82.177734 21.279299 29.222296 0.576172 -5.576171 16.875000 -4.257813 2.773438 -1.542969 -26.886686 11.034132 -15.412031 66.987823 1.085791 -14.280414 5.122685 -0.023145 -9.998065 6.132739 12.214452 -21.220776 -3.911085 2.289051 19.947435 -2.627408 5.744506 -9.649726 
332.672028 7.234037 5.362938 -8.974609 -1.738281 89.921577 0.000000 0.000000 0.000000 -3.701171 3.330078 -6.024823 -2.177734 7.138672 -10.233162 21.279297 -2.578125 -0.771924 13.759766 14.189452 25.000000 -85.771484 -38.964844 49.990234 -6.679687 -7.744140 9.063815 -14.980468 -7.822267 0.447890 -20.908205 1.464844 15.585937 82.734375 23.164063 30.414003 0.751953 -5.380848 17.071262 -4.257813 2.773438 -1.542969 -28.280994 9.637958 -15.010010 66.037125 0.764966 -6.821988 3.573900 -0.137472 -6.539161 7.147269 10.903641 -19.641718 -3.721467 2.127600 18.754105 -3.461238 5.729323 -9.820722 
333.371918 7.434094 5.315437 -7.392578 -1.748047 89.696968 0.000000 0.000000 0.000000 -2.822266 2.275391 -5.566019 -2.705078 6.054688 -10.439453 21.455076 -2.402344 -0.742188 14.150392 13.203125 24.997766 -85.664063 -40.058590 48.470276 -6.328125 -7.773438 9.287110 -12.480469 -7.226563 0.087891 -20.712891 0.712891 17.304565 83.291016 25.664064 33.066406 1.113281 -5.205079 17.110262 -2.509766 3.261719 -1.474054 -29.105356 8.241758 -13.497036 62.992329 0.931742 -3.130892 1.889344 -0.166435 -3.412439 7.858324 9.386464 -18.695354 -3.764151 2.337731 17.684229 -3.851282 5.853871 -10.164677 
334.289734 7.604575 5.270267 -5.986328 -1.582031 89.452858 0.000000 0.000000 0.000000 -1.591797 1.044922 -4.951172 -3.222656 5.146484 -10.633889 21.455078 -2.226563 -0.703125 14.550782 12.402344 24.997904 -85.302734 -41.142582 50.003342 -6.494141 -7.597657 9.277345 -15.693358 -8.037109 0.574808 -20.410156 -0.283203 19.101625 84.072266 28.017578 33.403023 1.464844 -4.863281 17.139730 -1.972656 3.417969 -1.386719 -29.276281 6.835595 -13.721142 57.942604 0.258575 -2.254988 0.487228 -0.131705 -2.312074 9.078615 7.641411 -16.819361 -3.784396 2.192553 16.097654 -4.859436 5.528660 -9.498354 
334.991821 7.718655 5.232816 -4.580078 -1.406269 89.404045 0.000000 0.000000 0.000000 -0.878906 0.000000 -4.580078 -3.564453 4.394532 -10.975816 21.630859 -2.226563 -0.712891 14.775392 11.552734 24.998043 -85.166016 -41.689457 48.662106 -6.318359 -7.451172 9.493453 -14.599609 -7.880859 0.468750 -20.332029 -1.123047 20.459175 85.117188 29.951176 33.891598 1.826172 -4.511694 17.178589 -1.308594 3.603516 -1.484375 -28.902796 6.318102 -14.325073 50.860672 -0.708985 -4.111209 -0.101422 0.066201 -3.182288 9.770754 7.103158 -19.660614 -3.674505 1.907009 15.249002 -5.383787 5.744486 -10.535689 
335.279785 7.810188 5.196184 -3.173828 -1.230469 89.355469 0.000000 0.000000 0.000000 -0.185547 -1.054688 -4.218750 -3.896484 3.613281 -11.493526 21.796875 -2.060547 -0.674179 15.048828 11.093749 25.000000 -85.166016 -41.679688 48.310551 -6.142578 -7.304688 9.707031 -15.312499 -7.919922 0.428342 -20.302736 -2.294922 20.869139 86.240234 30.976564 35.337055 1.826172 -4.335915 17.168795 -1.103516 3.671875 -1.347656 -27.932823 5.615463 -13.870773 42.143532 -1.006269 -6.408589 -0.034240 -0.444867 -4.304901 10.832479 5.559651 -18.005182 -3.716390 2.113848 13.974339 -6.077265 5.980418 -10.624017 
336.263153 7.862185 5.147765 -2.119141 -1.054688 89.501953 0.000000 0.000000 0.000000 0.527344 -1.757810 -3.896790 -3.886719 2.714844 -11.610866 21.621094 -1.884766 -0.625000 15.507812 10.537109 25.000000 -85.488281 -41.035156 48.265076 -5.957031 -7.128907 9.736327 -15.527344 -7.988280 0.585937 -20.175783 -3.515625 21.416014 87.304688 31.816404 36.435547 2.177734 -4.169922 17.197266 -0.937500 3.710938 -1.367188 -25.674919 5.614919 -12.691494 32.161179 -2.116539 -9.362441 0.727296 -0.035489 -4.524516 11.920795 3.484545 -14.175321 -3.541261 1.968491 12.603270 -6.471393 5.652981 -9.415088 
